<svg width="40" height="40" viewBox="0 0 40 40" fill="none" xmlns="http://www.w3.org/2000/svg">
<g clip-path="url(#clip0_1299_332)">
<path d="M16.6667 20C20.3486 20 23.3333 17.0152 23.3333 13.3333C23.3333 9.65144 20.3486 6.66667 16.6667 6.66667C12.9848 6.66667 10 9.65144 10 13.3333C10 17.0152 12.9848 20 16.6667 20Z" fill="#494A50"/>
<path d="M17.7833 21.7C17.4167 21.6833 17.05 21.6667 16.6667 21.6667C12.6333 21.6667 8.86666 22.7833 5.65 24.7C4.18333 25.5667 3.33333 27.2 3.33333 28.9167V33.3333H18.7667C17.45 31.45 16.6667 29.15 16.6667 26.6667C16.6667 24.8833 17.0833 23.2167 17.7833 21.7Z" fill="#494A50"/>
<path d="M34.5833 26.6667C34.5833 26.3 34.5333 25.9667 34.4833 25.6167L36.3833 23.9333L34.7167 21.05L32.3 21.8667C31.7667 21.4167 31.1667 21.0667 30.5 20.8167L30 18.3333H26.6667L26.1667 20.8167C25.5 21.0667 24.9 21.4167 24.3667 21.8667L21.95 21.05L20.2833 23.9333L22.1833 25.6167C22.1333 25.9667 22.0833 26.3 22.0833 26.6667C22.0833 27.0333 22.1333 27.3667 22.1833 27.7167L20.2833 29.4L21.95 32.2833L24.3667 31.4667C24.9 31.9167 25.5 32.2667 26.1667 32.5167L26.6667 35H30L30.5 32.5167C31.1667 32.2667 31.7667 31.9167 32.3 31.4667L34.7167 32.2833L36.3833 29.4L34.4833 27.7167C34.5333 27.3667 34.5833 27.0333 34.5833 26.6667ZM28.3333 30C26.5 30 25 28.5 25 26.6667C25 24.8333 26.5 23.3333 28.3333 23.3333C30.1667 23.3333 31.6667 24.8333 31.6667 26.6667C31.6667 28.5 30.1667 30 28.3333 30Z" fill="#494A50"/>
</g>
<defs>
<clipPath id="clip0_1299_332">
<rect width="40" height="40" fill="white"/>
</clipPath>
</defs>
</svg>
